<svg xmlns="http://www.w3.org/2000/svg" xmlns:xlink="http://www.w3.org/1999/xlink" width="1200" zoomAndPan="magnify" viewBox="0 0 900 179.999997" height="240" preserveAspectRatio="xMidYMid meet" version="1.0"><defs><g/><clipPath id="f1d717ff03"><path d="M 0.398438 32 L 265 32 L 265 173 L 0.398438 173 Z M 0.398438 32 " clip-rule="nonzero"/></clipPath><clipPath id="f94b514a6c"><rect x="0" width="883" y="0" height="180"/></clipPath></defs><g transform="matrix(1, 0, 0, 1, 14, 0)"><g clip-path="url(#f94b514a6c)"><g clip-path="url(#f1d717ff03)"><g fill="#141414" fill-opacity="1"><g transform="translate(0.639241, 139.633156)"><g><path d="M 263.8125 24.578125 C 263.914062 24.628906 263.984375 24.738281 264.015625 24.90625 C 264.054688 25.082031 264.078125 25.222656 264.078125 25.328125 C 264.003906 25.492188 263.914062 25.625 263.8125 25.71875 C 263.71875 25.820312 263.609375 25.910156 263.484375 25.984375 C 262.992188 26.179688 262.515625 26.253906 262.046875 26.203125 C 261.546875 26.203125 261.078125 26.179688 260.640625 26.140625 C 260.410156 26.085938 260.222656 26.0625 260.078125 26.0625 C 257.785156 25.84375 255.507812 25.597656 253.25 25.328125 C 247.925781 24.773438 242.640625 24.253906 237.390625 23.765625 C 227.179688 22.859375 216.960938 22.019531 206.734375 21.25 C 192.421875 20.269531 178.082031 19.507812 163.71875 18.96875 C 153.414062 18.59375 143.113281 18.320312 132.8125 18.15625 C 131.675781 18.101562 130.53125 18.078125 129.375 18.078125 C 128.1875 18.078125 127.03125 18.050781 125.90625 18 C 118.90625 17.832031 111.90625 17.75 104.90625 17.75 L 104.75 17.75 C 100.632812 17.75 96.546875 17.832031 92.484375 18 C 90.953125 18.050781 89.460938 18.078125 88.015625 18.078125 C 86.160156 18.128906 84.285156 18.484375 82.390625 19.140625 C 68.171875 24.117188 53.804688 27.78125 39.296875 30.125 C 35.109375 30.8125 30.929688 31.390625 26.765625 31.859375 C 22.597656 32.328125 18.421875 32.5625 14.234375 32.5625 C 12.878906 32.5625 11.523438 32.535156 10.171875 32.484375 C 8.117188 32.484375 6.144531 32.210938 4.25 31.671875 C 3.488281 31.503906 2.773438 31.257812 2.109375 30.9375 C 1.515625 30.71875 1.015625 30.40625 0.609375 30 C 0.203125 29.59375 0.0234375 29.03125 0.078125 28.3125 C 0.203125 27.625 0.503906 27.03125 0.984375 26.53125 C 1.460938 26.039062 2.007812 25.640625 2.625 25.328125 C 4.519531 24.234375 6.515625 23.503906 8.609375 23.140625 C 9.648438 22.867188 10.710938 22.625 11.796875 22.40625 C 15.316406 21.59375 18.863281 20.914062 22.4375 20.375 C 36.75 18.25 51.019531 16.867188 65.25 16.234375 C 66.101562 16.148438 66.9375 16.085938 67.75 16.046875 C 72.132812 15.816406 76.523438 15.628906 80.921875 15.484375 C 82.492188 15.441406 84.066406 15.144531 85.640625 14.59375 C 91.066406 12.570312 96.410156 10.316406 101.671875 7.828125 C 106.929688 5.347656 112.078125 2.53125 117.109375 -0.625 C 121.296875 -3.164062 125.148438 -6.171875 128.671875 -9.640625 C 130.671875 -11.546875 132.296875 -13.691406 133.546875 -16.078125 C 135.222656 -19.554688 134.914062 -22.5625 132.625 -25.09375 C 131 -26.769531 129.078125 -28.078125 126.859375 -29.015625 C 123.929688 -30.367188 120.882812 -31.453125 117.71875 -32.265625 C 114.550781 -33.078125 111.335938 -33.78125 108.078125 -34.375 C 98.867188 -35.875 89.46875 -36.800781 79.875 -37.15625 C 79.53125 -37.15625 79.195312 -37.15625 78.875 -37.15625 C 78.507812 -37.15625 78.128906 -37.15625 77.734375 -37.15625 C 76.921875 -37.03125 76.304688 -36.535156 75.890625 -35.671875 C 75.671875 -35.296875 75.472656 -34.9375 75.296875 -34.59375 C 74.878906 -33.78125 74.445312 -32.96875 74 -32.15625 C 70.601562 -25.28125 67.21875 -18.429688 63.84375 -11.609375 C 61.03125 -5.796875 58.179688 -0.015625 55.296875 5.734375 C 55.242188 5.953125 55.171875 6.132812 55.078125 6.28125 C 54.734375 7 54.351562 7.675781 53.9375 8.3125 C 53.4375 8.851562 52.867188 9.078125 52.234375 8.984375 C 51.835938 9.035156 51.453125 9.007812 51.078125 8.90625 C 50.421875 8.5625 50.203125 8.046875 50.421875 7.359375 C 51.015625 5.828125 51.664062 4.335938 52.375 2.890625 C 56.664062 -6.234375 60.957031 -15.316406 65.25 -24.359375 C 66.644531 -27.242188 68.019531 -30.113281 69.375 -32.96875 C 69.476562 -33.238281 69.59375 -33.488281 69.71875 -33.71875 C 70.039062 -34.375 70.335938 -35.023438 70.609375 -35.671875 C 70.972656 -36.660156 70.675781 -37.175781 69.71875 -37.21875 C 69.21875 -37.269531 68.722656 -37.296875 68.234375 -37.296875 C 67.597656 -37.347656 66.96875 -37.394531 66.34375 -37.4375 C 66.25 -37.4375 66.113281 -37.4375 65.9375 -37.4375 C 65.195312 -37.519531 64.5 -37.648438 63.84375 -37.828125 C 63.195312 -38.015625 62.8125 -38.515625 62.6875 -39.328125 C 62.6875 -40.242188 63 -40.921875 63.625 -41.359375 C 64.257812 -41.804688 64.957031 -42.164062 65.71875 -42.4375 C 65.988281 -42.53125 66.238281 -42.601562 66.46875 -42.65625 C 68.507812 -43.519531 70.585938 -44.285156 72.703125 -44.953125 C 72.929688 -45.046875 73.179688 -45.117188 73.453125 -45.171875 C 75.078125 -45.660156 76.296875 -46.695312 77.109375 -48.28125 C 80.734375 -55.15625 84.367188 -62.015625 88.015625 -68.859375 C 89.242188 -71.222656 90.507812 -73.628906 91.8125 -76.078125 C 91.988281 -76.421875 92.148438 -76.753906 92.296875 -77.078125 C 92.617188 -77.765625 93.003906 -78.441406 93.453125 -79.109375 C 93.992188 -79.921875 94.691406 -80.238281 95.546875 -80.0625 C 95.941406 -80.113281 96.328125 -80.085938 96.703125 -79.984375 C 97.515625 -79.617188 97.757812 -78.992188 97.4375 -78.109375 C 97.4375 -78.054688 97.410156 -78.03125 97.359375 -78.03125 C 96.742188 -76.1875 96.003906 -74.398438 95.140625 -72.671875 C 93.023438 -68.503906 90.859375 -64.328125 88.640625 -60.140625 C 87.953125 -58.734375 87.222656 -57.328125 86.453125 -55.921875 C 86.066406 -55.210938 85.6875 -54.507812 85.3125 -53.8125 C 84.675781 -52.613281 84.046875 -51.394531 83.421875 -50.15625 C 83.421875 -50.15625 83.398438 -50.117188 83.359375 -50.046875 C 83.253906 -49.847656 83.171875 -49.640625 83.109375 -49.421875 C 83.046875 -49.203125 83.148438 -49.039062 83.421875 -48.9375 C 83.597656 -48.863281 83.773438 -48.800781 83.953125 -48.75 L 84.09375 -48.828125 C 84.414062 -48.898438 84.773438 -48.988281 85.171875 -49.09375 C 85.265625 -49.132812 85.363281 -49.179688 85.46875 -49.234375 C 97.34375 -52.984375 109.207031 -56.863281 121.0625 -60.875 C 132.914062 -64.894531 144.691406 -69.207031 156.390625 -73.8125 C 156.660156 -73.914062 156.910156 -73.992188 157.140625 -74.046875 C 160.710938 -75.515625 164.269531 -76.992188 167.8125 -78.484375 C 171.363281 -79.984375 174.878906 -81.59375 178.359375 -83.3125 C 180.941406 -84.570312 183.378906 -86.066406 185.671875 -87.796875 C 190.546875 -91.753906 190.753906 -95.300781 186.296875 -98.4375 C 184.203125 -99.863281 181.914062 -100.953125 179.4375 -101.703125 C 176.96875 -102.453125 174.4375 -102.988281 171.84375 -103.3125 C 165.65625 -104.25 159.394531 -104.71875 153.0625 -104.71875 L 152.953125 -104.71875 C 146.847656 -104.664062 140.675781 -104.367188 134.4375 -103.828125 C 120.613281 -102.617188 106.816406 -100.28125 93.046875 -96.8125 C 80.347656 -93.675781 67.898438 -89.398438 55.703125 -83.984375 C 52.503906 -82.578125 49.390625 -80.972656 46.359375 -79.171875 C 45.492188 -78.628906 44.628906 -78.140625 43.765625 -77.703125 C 43.273438 -77.503906 42.804688 -77.453125 42.359375 -77.546875 C 41.765625 -77.453125 41.285156 -77.613281 40.921875 -78.03125 C 40.648438 -78.425781 40.632812 -78.78125 40.875 -79.09375 C 41.125 -79.414062 41.4375 -79.691406 41.8125 -79.921875 C 44.414062 -81.765625 47.125 -83.300781 49.9375 -84.53125 C 49.988281 -84.53125 50.039062 -84.554688 50.09375 -84.609375 C 61.59375 -90.035156 73.359375 -94.375 85.390625 -97.625 C 102.734375 -102.40625 120.164062 -105.382812 137.6875 -106.5625 C 143.113281 -106.957031 148.515625 -107.15625 153.890625 -107.15625 C 159.722656 -107.207031 165.507812 -106.910156 171.25 -106.265625 C 176.675781 -105.722656 181.828125 -104.46875 186.703125 -102.5 C 188.992188 -101.632812 190.976562 -100.34375 192.65625 -98.625 C 194.0625 -97.09375 194.679688 -95.410156 194.515625 -93.578125 C 194.359375 -91.742188 193.46875 -89.925781 191.84375 -88.125 C 189.769531 -86.050781 187.46875 -84.335938 184.9375 -82.984375 C 181.851562 -81.253906 178.707031 -79.6875 175.5 -78.28125 C 172.300781 -76.882812 169.078125 -75.53125 165.828125 -74.21875 C 165.722656 -74.175781 165.585938 -74.117188 165.421875 -74.046875 C 154.078125 -69.378906 142.644531 -65.054688 131.125 -61.078125 C 119.601562 -57.097656 108.039062 -53.257812 96.4375 -49.5625 C 94.488281 -48.925781 92.539062 -48.273438 90.59375 -47.609375 C 87.882812 -46.703125 85.175781 -45.816406 82.46875 -44.953125 C 81.28125 -44.679688 80.332031 -44.023438 79.625 -42.984375 C 79.03125 -42.003906 78.769531 -41.242188 78.84375 -40.703125 C 78.914062 -40.160156 79.53125 -39.863281 80.6875 -39.8125 C 83.769531 -39.707031 86.851562 -39.546875 89.9375 -39.328125 C 90.15625 -39.328125 90.351562 -39.328125 90.53125 -39.328125 C 96.363281 -38.960938 102.125 -38.34375 107.8125 -37.46875 C 113.507812 -36.59375 119.070312 -35.316406 124.5 -33.640625 C 126.832031 -32.867188 129.085938 -32.003906 131.265625 -31.046875 C 132.710938 -30.378906 134.09375 -29.566406 135.40625 -28.609375 C 141 -24.273438 141.40625 -18.816406 136.625 -12.234375 C 135.039062 -10.066406 133.226562 -8.097656 131.1875 -6.328125 C 126.132812 -1.984375 120.710938 1.765625 114.921875 4.921875 C 109.921875 7.679688 104.84375 10.226562 99.6875 12.5625 C 99.101562 12.757812 98.488281 13.03125 97.84375 13.375 C 97.519531 13.53125 97.160156 13.691406 96.765625 13.859375 C 97.085938 14.347656 97.382812 14.640625 97.65625 14.734375 C 97.925781 14.835938 98.234375 14.867188 98.578125 14.828125 C 98.578125 14.828125 98.601562 14.828125 98.65625 14.828125 C 99.570312 14.867188 100.457031 14.890625 101.3125 14.890625 L 101.4375 14.890625 C 102.019531 14.890625 102.609375 14.867188 103.203125 14.828125 C 105.910156 14.828125 108.625 14.828125 111.34375 14.828125 C 127.425781 14.867188 143.441406 15.222656 159.390625 15.890625 C 176.734375 16.484375 194.007812 17.546875 211.21875 19.078125 C 216.6875 19.546875 222.15625 20.023438 227.625 20.515625 C 234.226562 21.054688 240.820312 21.625 247.40625 22.21875 C 251.25 22.613281 255.066406 23.082031 258.859375 23.625 C 259.773438 23.71875 260.722656 23.828125 261.703125 23.953125 C 262.398438 24.046875 263.101562 24.253906 263.8125 24.578125 Z M 72.640625 -40.40625 C 72.734375 -40.445312 72.832031 -40.546875 72.9375 -40.703125 C 73.050781 -40.867188 73.132812 -41.003906 73.1875 -41.109375 C 73.1875 -41.234375 73.160156 -41.316406 73.109375 -41.359375 C 73.066406 -41.410156 72.984375 -41.5 72.859375 -41.625 C 72.859375 -41.625 72.832031 -41.648438 72.78125 -41.703125 C 72.1875 -41.578125 71.644531 -41.28125 71.15625 -40.8125 C 71.0625 -40.6875 71.023438 -40.554688 71.046875 -40.421875 C 71.066406 -40.285156 71.164062 -40.21875 71.34375 -40.21875 C 71.757812 -40.21875 72.191406 -40.28125 72.640625 -40.40625 Z M 68.5625 20.296875 C 68.664062 20.222656 68.78125 20.1875 68.90625 20.1875 C 69.101562 20.132812 69.3125 20.039062 69.53125 19.90625 C 69.75 19.769531 69.910156 19.566406 70.015625 19.296875 C 69.910156 19.078125 69.8125 18.941406 69.71875 18.890625 C 69.644531 18.890625 69.582031 18.890625 69.53125 18.890625 C 56.414062 19.484375 43.269531 20.59375 30.09375 22.21875 C 23.582031 22.976562 17.097656 24.195312 10.640625 25.875 C 10.492188 25.945312 10.335938 26.007812 10.171875 26.0625 C 9.035156 26.28125 8.007812 26.734375 7.09375 27.421875 C 6.875 27.597656 6.734375 27.789062 6.671875 28 C 6.609375 28.207031 6.710938 28.398438 6.984375 28.578125 C 7.523438 28.796875 8.101562 28.976562 8.71875 29.125 C 10.8125 29.519531 12.945312 29.71875 15.125 29.71875 C 16.96875 29.71875 18.8125 29.628906 20.65625 29.453125 C 36.707031 28.097656 52.675781 25.046875 68.5625 20.296875 Z M 68.5625 20.296875 "/></g></g></g></g><g fill="#141414" fill-opacity="1"><g transform="translate(157.261673, 139.633156)"><g><path d="M 17.890625 -17.625 C 18.703125 -18.445312 19.378906 -18.90625 19.921875 -19 C 20.460938 -19.09375 20.8125 -19.003906 20.96875 -18.734375 C 21.132812 -18.460938 21.03125 -18.09375 20.65625 -17.625 C 18.488281 -15.019531 16.0625 -12.765625 13.375 -10.859375 C 10.695312 -8.960938 7.929688 -7.867188 5.078125 -7.578125 C 2.234375 -7.285156 0.515625 -8.835938 -0.078125 -12.234375 C -0.515625 -15.609375 1.53125 -22.484375 6.0625 -32.859375 C 10.59375 -43.234375 14.175781 -51.734375 16.8125 -58.359375 C 17.039062 -58.953125 17.375 -59.472656 17.8125 -59.921875 C 18.40625 -60.515625 19.109375 -60.648438 19.921875 -60.328125 C 20.191406 -60.203125 20.460938 -60.003906 20.734375 -59.734375 C 21.003906 -59.460938 21.09375 -58.984375 21 -58.296875 C 9.34375 -30.640625 3.695312 -15.601562 4.0625 -13.1875 C 4.4375 -10.78125 5.992188 -10.1875 8.734375 -11.40625 C 11.484375 -12.625 13.601562 -13.867188 15.09375 -15.140625 C 16.59375 -16.410156 17.523438 -17.238281 17.890625 -17.625 Z M 17.890625 -17.625 "/></g></g></g><g fill="#141414" fill-opacity="1"><g transform="translate(185.623646, 139.633156)"><g><path d="M 14.6875 -15.578125 C 13.375 -14.015625 11.816406 -12.578125 10.015625 -11.265625 C 8.210938 -9.960938 6.175781 -9.082031 3.90625 -8.625 C 1.644531 -8.175781 -0.109375 -8.34375 -1.359375 -9.125 C -2.617188 -9.914062 -2.867188 -11.664062 -2.109375 -14.375 C -1.117188 -17.1875 0.234375 -19.863281 1.953125 -22.40625 C 2.347656 -22.945312 2.914062 -23.328125 3.65625 -23.546875 C 4.195312 -23.671875 4.671875 -23.578125 5.078125 -23.265625 C 5.484375 -22.960938 5.640625 -22.578125 5.546875 -22.109375 C 5.171875 -21.222656 4.757812 -20.332031 4.3125 -19.4375 C 3.875 -18.550781 3.582031 -17.972656 3.4375 -17.703125 C 2.570312 -16.128906 1.96875 -14.476562 1.625 -12.75 C 1.625 -11.769531 2.941406 -11.707031 5.578125 -12.5625 C 8.210938 -13.425781 10.773438 -15.007812 13.265625 -17.3125 C 15.753906 -19.625 16.941406 -20.300781 16.828125 -19.34375 C 16.722656 -18.394531 16.007812 -17.140625 14.6875 -15.578125 Z M 8.25 -27.9375 C 8.125 -27.84375 7.867188 -27.726562 7.484375 -27.59375 C 7.097656 -27.457031 6.691406 -27.359375 6.265625 -27.296875 C 5.835938 -27.234375 5.5 -27.300781 5.25 -27.5 C 5 -27.695312 4.988281 -28.09375 5.21875 -28.6875 C 5.601562 -29.71875 6.007812 -30.617188 6.4375 -31.390625 C 6.875 -32.171875 7.4375 -33.03125 8.125 -33.96875 C 8.570312 -34.382812 9.050781 -34.609375 9.5625 -34.640625 C 10.082031 -34.679688 10.515625 -34.546875 10.859375 -34.234375 C 11.210938 -33.929688 11.3125 -33.507812 11.15625 -32.96875 C 10.613281 -31.019531 9.644531 -29.34375 8.25 -27.9375 Z M 8.25 -27.9375 "/></g></g></g><g fill="#141414" fill-opacity="1"><g transform="translate(209.956685, 139.633156)"><g><path d="M 17.890625 -18.734375 C 13.992188 -17.285156 11.1875 -16.101562 9.46875 -15.1875 C 8.207031 -14.570312 7.484375 -14.0625 7.296875 -13.65625 C 7.109375 -13.25 7.25 -12.503906 7.71875 -11.421875 C 7.71875 -11.367188 7.757812 -11.296875 7.84375 -11.203125 C 8.382812 -9.890625 8.703125 -8.535156 8.796875 -7.140625 C 8.972656 -4.304688 6.5625 -2.320312 1.5625 -1.1875 C -3.425781 -0.0507812 -6.765625 -0.0078125 -8.453125 -1.0625 C -10.140625 -2.125 -10.65625 -3.46875 -10 -5.09375 C -9.34375 -6.726562 -7.644531 -8.378906 -4.90625 -10.046875 C -2.175781 -11.722656 -0.351562 -12.929688 0.5625 -13.671875 C 1.488281 -14.410156 1.769531 -15.238281 1.40625 -16.15625 C 1.28125 -16.476562 1.144531 -16.796875 1 -17.109375 C 0.675781 -17.878906 0.34375 -18.671875 0 -19.484375 C -0.644531 -20.960938 -0.921875 -22.414062 -0.828125 -23.84375 C -0.742188 -25.269531 -0.21875 -26.46875 0.75 -27.4375 C 1.726562 -28.414062 3.238281 -28.941406 5.28125 -29.015625 C 6.4375 -29.066406 7.472656 -28.910156 8.390625 -28.546875 C 9.304688 -28.191406 10.035156 -27.535156 10.578125 -26.578125 C 11.015625 -25.910156 10.878906 -25.304688 10.171875 -24.765625 C 9.703125 -24.398438 9.195312 -24.351562 8.65625 -24.625 C 8.300781 -24.769531 7.96875 -24.976562 7.65625 -25.25 C 7.65625 -25.320312 7.65625 -25.359375 7.65625 -25.359375 C 7.507812 -25.453125 7.375 -25.550781 7.25 -25.65625 C 7.09375 -25.875 6.929688 -26.046875 6.765625 -26.171875 C 6.117188 -26.640625 5.46875 -26.78125 4.8125 -26.59375 C 4.164062 -26.40625 3.679688 -25.90625 3.359375 -25.09375 C 3.140625 -24.457031 3.03125 -23.804688 3.03125 -23.140625 C 3.082031 -22.328125 3.265625 -21.539062 3.578125 -20.78125 C 3.804688 -20.3125 4.003906 -19.878906 4.171875 -19.484375 C 4.597656 -18.398438 4.945312 -17.65625 5.21875 -17.25 C 5.488281 -16.84375 5.8125 -16.664062 6.1875 -16.71875 C 6.570312 -16.78125 10.066406 -18.035156 16.671875 -20.484375 C 18.097656 -20.953125 18.503906 -20.367188 17.890625 -18.734375 Z M 1.890625 -4.625 C 3.609375 -5.207031 4.332031 -6.363281 4.0625 -8.09375 C 4.0625 -8.21875 4.035156 -8.351562 3.984375 -8.5 C 3.890625 -9.4375 3.691406 -10.15625 3.390625 -10.65625 C 3.097656 -11.164062 2.4375 -11.148438 1.40625 -10.609375 C -1.15625 -9.148438 -3.519531 -7.445312 -5.6875 -5.5 C -5.84375 -5.332031 -5.976562 -5.175781 -6.09375 -5.03125 C -6.09375 -5.03125 -6.117188 -4.992188 -6.171875 -4.921875 C -6.316406 -4.722656 -6.335938 -4.5 -6.234375 -4.25 C -6.140625 -4 -5.921875 -3.875 -5.578125 -3.875 C -3.046875 -3.488281 -0.554688 -3.738281 1.890625 -4.625 Z M 1.890625 -4.625 "/></g></g></g><g fill="#141414" fill-opacity="1"><g transform="translate(236.248748, 139.633156)"><g><path d="M 29.28125 -18.4375 C 29.675781 -17.945312 29.179688 -17.046875 27.796875 -15.734375 C 26.421875 -14.429688 24.953125 -13.335938 23.390625 -12.453125 C 21.835938 -11.566406 20.039062 -10.679688 18 -9.796875 C 16.644531 -9.203125 15.203125 -9.003906 13.671875 -9.203125 C 12.148438 -9.398438 11.390625 -10.320312 11.390625 -11.96875 C 11.390625 -13.625 11.769531 -15.265625 12.53125 -16.890625 C 13.289062 -18.566406 13.457031 -19.425781 13.03125 -19.46875 C 12.601562 -19.519531 11.707031 -19.117188 10.34375 -18.265625 C 6.820312 -15.941406 3.546875 -13.289062 0.515625 -10.3125 C -0.296875 -9.320312 -1.332031 -8.78125 -2.59375 -8.6875 C -3.226562 -8.6875 -3.722656 -8.890625 -4.078125 -9.296875 C -4.441406 -9.703125 -4.488281 -10.140625 -4.21875 -10.609375 C -2.050781 -14.628906 0.140625 -18.597656 2.359375 -22.515625 C 2.859375 -23.328125 3.597656 -23.832031 4.578125 -24.03125 C 5.003906 -24.101562 5.394531 -23.972656 5.75 -23.640625 C 6.101562 -23.304688 6.28125 -22.929688 6.28125 -22.515625 C 6.226562 -22.117188 6.066406 -21.648438 5.796875 -21.109375 C 5.679688 -20.785156 5.566406 -20.472656 5.453125 -20.171875 C 5.335938 -19.878906 5.296875 -19.632812 5.328125 -19.4375 C 5.367188 -19.238281 5.523438 -19.179688 5.796875 -19.265625 C 6.171875 -19.453125 6.539062 -19.660156 6.90625 -19.890625 C 7.84375 -20.429688 8.742188 -20.945312 9.609375 -21.4375 C 10.367188 -21.882812 11.164062 -22.28125 12 -22.625 C 12.84375 -22.96875 13.722656 -23.203125 14.640625 -23.328125 C 16.117188 -23.421875 17.164062 -23.085938 17.78125 -22.328125 C 18.394531 -21.566406 18.46875 -20.503906 18 -19.140625 C 17.507812 -17.910156 16.992188 -16.691406 16.453125 -15.484375 C 15.785156 -14.347656 15.671875 -13.484375 16.109375 -12.890625 C 16.554688 -12.304688 18.617188 -12.988281 22.296875 -14.9375 L 25.0625 -16.5625 C 27.675781 -18.238281 29.082031 -18.863281 29.28125 -18.4375 Z M 29.28125 -18.4375 "/></g></g></g><g fill="#141414" fill-opacity="1"><g transform="translate(273.259993, 139.633156)"><g><path d="M 14.6875 -15.578125 C 13.375 -14.015625 11.816406 -12.578125 10.015625 -11.265625 C 8.210938 -9.960938 6.175781 -9.082031 3.90625 -8.625 C 1.644531 -8.175781 -0.109375 -8.34375 -1.359375 -9.125 C -2.617188 -9.914062 -2.867188 -11.664062 -2.109375 -14.375 C -1.117188 -17.1875 0.234375 -19.863281 1.953125 -22.40625 C 2.347656 -22.945312 2.914062 -23.328125 3.65625 -23.546875 C 4.195312 -23.671875 4.671875 -23.578125 5.078125 -23.265625 C 5.484375 -22.960938 5.640625 -22.578125 5.546875 -22.109375 C 5.171875 -21.222656 4.757812 -20.332031 4.3125 -19.4375 C 3.875 -18.550781 3.582031 -17.972656 3.4375 -17.703125 C 2.570312 -16.128906 1.96875 -14.476562 1.625 -12.75 C 1.625 -11.769531 2.941406 -11.707031 5.578125 -12.5625 C 8.210938 -13.425781 10.773438 -15.007812 13.265625 -17.3125 C 15.753906 -19.625 16.941406 -20.300781 16.828125 -19.34375 C 16.722656 -18.394531 16.007812 -17.140625 14.6875 -15.578125 Z M 8.25 -27.9375 C 8.125 -27.84375 7.867188 -27.726562 7.484375 -27.59375 C 7.097656 -27.457031 6.691406 -27.359375 6.265625 -27.296875 C 5.835938 -27.234375 5.5 -27.300781 5.25 -27.5 C 5 -27.695312 4.988281 -28.09375 5.21875 -28.6875 C 5.601562 -29.71875 6.007812 -30.617188 6.4375 -31.390625 C 6.875 -32.171875 7.4375 -33.03125 8.125 -33.96875 C 8.570312 -34.382812 9.050781 -34.609375 9.5625 -34.640625 C 10.082031 -34.679688 10.515625 -34.546875 10.859375 -34.234375 C 11.210938 -33.929688 11.3125 -33.507812 11.15625 -32.96875 C 10.613281 -31.019531 9.644531 -29.34375 8.25 -27.9375 Z M 8.25 -27.9375 "/></g></g></g><g fill="#141414" fill-opacity="1"><g transform="translate(297.593032, 139.633156)"><g><path d="M 0.921875 -6.546875 C -1.421875 -6.546875 -2.59375 -7.765625 -2.59375 -10.203125 C -2.59375 -13.179688 -0.65625 -18.441406 3.21875 -25.984375 C 3.363281 -26.304688 3.632812 -26.46875 4.03125 -26.46875 C 5.582031 -26.46875 6.359375 -25.851562 6.359375 -24.625 C 6.359375 -24.175781 6.222656 -23.628906 5.953125 -22.984375 C 5.847656 -22.816406 4.550781 -19.566406 2.0625 -13.234375 C 1.675781 -12.203125 1.484375 -11.4375 1.484375 -10.9375 C 1.484375 -10.394531 1.726562 -10.125 2.21875 -10.125 C 4.019531 -10.125 8.738281 -14.597656 16.375 -23.546875 C 17.363281 -24.753906 18.335938 -25.359375 19.296875 -25.359375 C 20.703125 -25.359375 21.40625 -24.84375 21.40625 -23.8125 C 21.40625 -23.414062 20.972656 -21.921875 20.109375 -19.328125 C 18.921875 -15.804688 18.328125 -13.773438 18.328125 -13.234375 C 18.328125 -12.421875 18.597656 -12.015625 19.140625 -12.015625 C 20.503906 -12.015625 24.460938 -14.429688 31.015625 -19.265625 C 31.378906 -19.578125 31.695312 -19.734375 31.96875 -19.734375 C 32.582031 -19.734375 32.890625 -19.21875 32.890625 -18.1875 C 32.890625 -17.914062 32.804688 -17.691406 32.640625 -17.515625 C 29.160156 -14.535156 26.203125 -12.269531 23.765625 -10.71875 C 21.546875 -9.289062 19.578125 -8.578125 17.859375 -8.578125 L 17.34375 -8.578125 C 14.800781 -9.117188 13.53125 -11.101562 13.53125 -14.53125 C 10.820312 -12.132812 8.570312 -10.203125 6.78125 -8.734375 C 5 -7.273438 3.046875 -6.546875 0.921875 -6.546875 Z M 0.921875 -6.546875 "/></g></g></g><g fill="#141414" fill-opacity="1"><g transform="translate(337.893944, 139.633156)"><g><path d="M 28.640625 -18.859375 C 28.835938 -18.578125 28.882812 -18.300781 28.78125 -18.03125 C 28.6875 -17.757812 28.503906 -17.515625 28.234375 -17.296875 C 26.535156 -15.765625 24.640625 -14.546875 22.546875 -13.640625 C 18.953125 -11.960938 15.179688 -10.925781 11.234375 -10.53125 C 8.128906 -10.207031 5.171875 -10.675781 2.359375 -11.9375 C 1.328125 -12.40625 0.566406 -12.160156 0.078125 -11.203125 C -0.617188 -9.847656 -1.347656 -8.492188 -2.109375 -7.140625 C -2.472656 -6.367188 -2.878906 -5.578125 -3.328125 -4.765625 C -3.378906 -4.671875 -3.425781 -4.5625 -3.46875 -4.4375 C -3.644531 -4.164062 -3.8125 -3.90625 -3.96875 -3.65625 C -4.132812 -3.414062 -4.414062 -3.242188 -4.8125 -3.140625 C -5 -3.085938 -5.203125 -3.0625 -5.421875 -3.0625 C -5.648438 -3.0625 -5.851562 -3.113281 -6.03125 -3.21875 C -6.175781 -3.34375 -6.300781 -3.507812 -6.40625 -3.71875 C -6.519531 -3.925781 -6.578125 -4.140625 -6.578125 -4.359375 C -6.410156 -5.078125 -6.164062 -5.78125 -5.84375 -6.46875 C -5.15625 -8.039062 -4.476562 -9.59375 -3.8125 -11.125 C -2.132812 -15.019531 -0.367188 -18.863281 1.484375 -22.65625 C 6.578125 -33.132812 11.429688 -43.707031 16.046875 -54.375 C 16.410156 -55.40625 16.914062 -56.328125 17.5625 -57.140625 C 18.050781 -57.734375 18.726562 -57.894531 19.59375 -57.625 C 20.476562 -57.257812 20.75 -56.632812 20.40625 -55.75 C 19.8125 -53.914062 19.171875 -52.078125 18.484375 -50.234375 C 15.054688 -41.785156 11.3125 -33.492188 7.25 -25.359375 C 6.382812 -23.609375 6.070312 -22.503906 6.3125 -22.046875 C 6.5625 -21.585938 7.140625 -21.550781 8.046875 -21.9375 C 8.960938 -22.320312 10.023438 -22.832031 11.234375 -23.46875 C 12.097656 -23.96875 12.960938 -24.398438 13.828125 -24.765625 C 13.992188 -24.890625 14.15625 -24.976562 14.3125 -25.03125 C 15.34375 -25.613281 16.460938 -25.929688 17.671875 -25.984375 C 18.140625 -25.984375 18.484375 -25.773438 18.703125 -25.359375 C 18.828125 -25.085938 18.832031 -24.851562 18.71875 -24.65625 C 18.613281 -24.457031 18.472656 -24.3125 18.296875 -24.21875 C 16.453125 -23.125 14.578125 -22.085938 12.671875 -21.109375 C 11.765625 -20.691406 10.816406 -20.234375 9.828125 -19.734375 C 8.867188 -19.296875 7.921875 -18.828125 6.984375 -18.328125 C 6.347656 -17.960938 5.757812 -17.535156 5.21875 -17.046875 C 3.957031 -15.734375 4.09375 -14.644531 5.625 -13.78125 C 6.875 -13.238281 8.132812 -12.957031 9.40625 -12.9375 C 10.675781 -12.914062 11.941406 -13.0625 13.203125 -13.375 C 17.085938 -14.238281 20.742188 -15.65625 24.171875 -17.625 C 24.441406 -17.78125 24.710938 -17.914062 24.984375 -18.03125 C 25.628906 -18.457031 26.304688 -18.828125 27.015625 -19.140625 C 27.285156 -19.265625 27.582031 -19.316406 27.90625 -19.296875 C 28.226562 -19.273438 28.472656 -19.128906 28.640625 -18.859375 Z M 28.640625 -18.859375 "/></g></g></g><g fill="#141414" fill-opacity="1"><g transform="translate(373.833268, 139.633156)"><g/></g></g><g fill="#141414" fill-opacity="1"><g transform="translate(411.694637, 139.633156)"><g><path d="M 78.328125 -30.046875 C 78.597656 -29.410156 78.757812 -28.734375 78.8125 -28.015625 C 78.957031 -25.085938 78.675781 -21.835938 77.96875 -18.265625 C 77.269531 -14.691406 76.070312 -11.164062 74.375 -7.6875 C 72.675781 -4.21875 70.4375 -1.25 67.65625 1.21875 C 64.882812 3.6875 61.554688 5.210938 57.671875 5.796875 C 52.117188 6.609375 47.375 5.6875 43.4375 3.03125 C 41.039062 1.351562 39.117188 -0.726562 37.671875 -3.21875 C 37.128906 -4.082031 36.585938 -4.984375 36.046875 -5.921875 C 35.773438 -6.335938 35.460938 -6.789062 35.109375 -7.28125 C 33.753906 -6.644531 32.535156 -5.804688 31.453125 -4.765625 C 31.085938 -4.441406 30.71875 -4.144531 30.34375 -3.875 C 30.269531 -3.832031 30.1875 -3.75 30.09375 -3.625 C 27.101562 -1.1875 23.957031 1.054688 20.65625 3.109375 C 17.132812 5.171875 13.613281 6.09375 10.09375 5.875 C 7.0625 5.65625 4.914062 4.570312 3.65625 2.625 C 2.40625 0.675781 2.269531 -1.835938 3.25 -4.921875 C 3.84375 -6.816406 4.691406 -8.609375 5.796875 -10.296875 C 6.910156 -11.984375 8.144531 -13.613281 9.5 -15.1875 C 11.519531 -17.507812 13.648438 -19.71875 15.890625 -21.8125 C 18.140625 -23.90625 20.457031 -25.945312 22.84375 -27.9375 C 24.914062 -29.664062 27.035156 -31.34375 29.203125 -32.96875 C 30.773438 -34.125 31.613281 -35.539062 31.71875 -37.21875 C 32.257812 -42.644531 33.429688 -48.117188 35.234375 -53.640625 C 36.410156 -57.429688 38.171875 -61.113281 40.515625 -64.6875 C 44.503906 -70.726562 49.703125 -73.570312 56.109375 -73.21875 C 59.316406 -73.175781 62.03125 -72.289062 64.25 -70.5625 C 68.21875 -67.1875 68.488281 -62.65625 65.0625 -56.96875 C 63.476562 -54.644531 61.601562 -52.472656 59.4375 -50.453125 C 57.394531 -48.503906 55.257812 -46.660156 53.03125 -44.921875 C 50.800781 -43.191406 48.550781 -41.515625 46.28125 -39.890625 C 46.007812 -39.691406 45.738281 -39.503906 45.46875 -39.328125 C 43.394531 -37.796875 41.359375 -36.28125 39.359375 -34.78125 C 38.503906 -34.238281 38.039062 -33.5625 37.96875 -32.75 C 37.914062 -32.03125 37.890625 -31.328125 37.890625 -30.640625 C 37.835938 -28.472656 37.878906 -26.34375 38.015625 -24.25 C 38.148438 -22.15625 38.539062 -20.160156 39.1875 -18.265625 C 39.257812 -18.210938 39.34375 -18.160156 39.4375 -18.109375 C 39.488281 -18.054688 39.515625 -18.03125 39.515625 -18.03125 C 40.773438 -18.675781 41.882812 -19.457031 42.84375 -20.375 C 43.1875 -20.644531 43.519531 -20.953125 43.84375 -21.296875 C 50.769531 -26.859375 57.863281 -32.164062 65.125 -37.21875 C 66.164062 -37.914062 67.226562 -38.59375 68.3125 -39.25 C 69.394531 -39.945312 70.503906 -40.21875 71.640625 -40.0625 C 72.304688 -40.019531 72.738281 -39.75 72.9375 -39.25 C 73.050781 -38.863281 73 -38.550781 72.78125 -38.3125 C 72.5625 -38.082031 72.316406 -37.851562 72.046875 -37.625 C 71.398438 -37.082031 70.742188 -36.539062 70.078125 -36 C 69.441406 -35.5625 68.828125 -35.070312 68.234375 -34.53125 C 66.878906 -33.488281 65.550781 -32.425781 64.25 -31.34375 C 57.101562 -25.601562 49.96875 -19.835938 42.84375 -14.046875 C 41.757812 -13.179688 41.132812 -12.503906 40.96875 -12.015625 C 40.8125 -11.523438 40.929688 -10.847656 41.328125 -9.984375 C 42.503906 -7.097656 44.046875 -4.519531 45.953125 -2.25 C 47.472656 -0.457031 49.367188 0.894531 51.640625 1.8125 C 54.796875 2.894531 57.640625 2.894531 60.171875 1.8125 C 62.710938 0.726562 64.90625 -1.054688 66.75 -3.546875 C 68.601562 -6.035156 70.082031 -8.835938 71.1875 -11.953125 C 72.300781 -15.078125 72.992188 -18.113281 73.265625 -21.0625 C 73.535156 -24.019531 73.347656 -26.5 72.703125 -28.5 C 72.703125 -28.769531 72.679688 -29.015625 72.640625 -29.234375 C 72.515625 -29.554688 72.453125 -29.890625 72.453125 -30.234375 C 72.453125 -30.609375 72.570312 -30.914062 72.8125 -31.15625 C 73.0625 -31.40625 73.375 -31.578125 73.75 -31.671875 C 76.082031 -32.335938 77.609375 -31.796875 78.328125 -30.046875 Z M 44.984375 -61.28125 C 43.953125 -59.4375 43.097656 -57.578125 42.421875 -55.703125 C 41.742188 -53.828125 41.132812 -51.941406 40.59375 -50.046875 C 40.414062 -49.359375 40.253906 -48.632812 40.109375 -47.875 C 39.660156 -45.96875 39.273438 -44.046875 38.953125 -42.109375 C 38.835938 -41.660156 38.945312 -41.367188 39.28125 -41.234375 C 39.613281 -41.097656 39.988281 -41.164062 40.40625 -41.4375 C 43.019531 -43.238281 45.566406 -45.097656 48.046875 -47.015625 C 50.535156 -48.941406 52.925781 -51.035156 55.21875 -53.296875 C 56.894531 -55.003906 58.273438 -56.828125 59.359375 -58.765625 C 61.804688 -63.867188 60.910156 -67.367188 56.671875 -69.265625 C 54.617188 -70.128906 52.484375 -69.660156 50.265625 -67.859375 C 49.109375 -66.953125 48.109375 -65.941406 47.265625 -64.828125 C 46.429688 -63.722656 45.671875 -62.539062 44.984375 -61.28125 Z M 31.859375 -11.34375 C 32.941406 -12.28125 33.300781 -13.289062 32.9375 -14.375 C 31.945312 -18.21875 31.378906 -22.25 31.234375 -26.46875 C 31.234375 -26.6875 31.171875 -26.957031 31.046875 -27.28125 C 30.953125 -27.5 30.878906 -27.769531 30.828125 -28.09375 C 27.523438 -25.601562 24.472656 -23.046875 21.671875 -20.421875 C 18.878906 -17.796875 16.289062 -15.019531 13.90625 -12.09375 C 11.6875 -9.375 10.191406 -6.5 9.421875 -3.46875 C 9.054688 -1.84375 9.253906 -0.425781 10.015625 0.78125 C 10.878906 2.28125 12.367188 2.515625 14.484375 1.484375 C 15.617188 1.015625 16.707031 0.421875 17.75 -0.296875 C 21.8125 -3.109375 25.738281 -6.140625 29.53125 -9.390625 C 30.269531 -10.054688 31.046875 -10.707031 31.859375 -11.34375 Z M 31.859375 -11.34375 "/></g></g></g><g fill="#141414" fill-opacity="1"><g transform="translate(498.868263, 139.633156)"><g/></g></g><g fill="#141414" fill-opacity="1"><g transform="translate(536.729639, 139.633156)"><g/></g></g><g fill="#141414" fill-opacity="1"><g transform="translate(574.596286, 139.633156)"><g><path d="M 199.796875 -33.78125 C 195.085938 -34.320312 190.34375 -34.59375 185.5625 -34.59375 C 183.46875 -34.664062 181.335938 -34.726562 179.171875 -34.78125 C 159.429688 -35.59375 139.640625 -35.800781 119.796875 -35.40625 C 118.816406 -35.40625 118.003906 -35.40625 117.359375 -35.40625 C 116.273438 -35.476562 115.484375 -35.472656 114.984375 -35.390625 C 114.492188 -35.304688 114.101562 -35.035156 113.8125 -34.578125 C 113.519531 -34.117188 113.175781 -33.375 112.78125 -32.34375 C 112.507812 -31.75 112.1875 -31.007812 111.8125 -30.125 C 108.507812 -22.925781 105.476562 -15.609375 102.71875 -8.171875 C 100.925781 -3.367188 99.535156 1.554688 98.546875 6.609375 C 98.179688 8.191406 98.050781 9.726562 98.15625 11.21875 C 98.269531 12.707031 98.941406 14.046875 100.171875 15.234375 C 100.347656 15.359375 100.410156 15.507812 100.359375 15.6875 C 100.304688 15.875 100.191406 16.046875 100.015625 16.203125 C 99.847656 16.367188 99.664062 16.472656 99.46875 16.515625 C 96.539062 16.960938 94.78125 15.914062 94.1875 13.375 C 93.84375 11.945312 93.78125 10.484375 94 8.984375 C 94 8.859375 94 8.769531 94 8.71875 C 94.21875 6.132812 94.675781 3.566406 95.375 1.015625 C 96.082031 -1.535156 96.867188 -4.09375 97.734375 -6.65625 C 100.515625 -14.34375 103.582031 -21.929688 106.9375 -29.421875 C 107.113281 -29.742188 107.25 -30.066406 107.34375 -30.390625 C 107.519531 -30.753906 107.707031 -31.132812 107.90625 -31.53125 C 108.175781 -32.070312 108.421875 -32.613281 108.640625 -33.15625 C 108.859375 -33.695312 108.941406 -34.265625 108.890625 -34.859375 C 108.617188 -35.078125 108.347656 -35.210938 108.078125 -35.265625 C 107.804688 -35.316406 107.535156 -35.316406 107.265625 -35.265625 C 107.222656 -35.265625 107.160156 -35.265625 107.078125 -35.265625 C 104.765625 -35.265625 102.4375 -35.238281 100.09375 -35.1875 C 99.457031 -35.1875 98.78125 -35.1875 98.0625 -35.1875 C 97.195312 -35.132812 96.46875 -34.863281 95.875 -34.375 C 95.289062 -33.882812 94.726562 -33.28125 94.1875 -32.5625 C 93.46875 -31.65625 92.753906 -30.742188 92.046875 -29.828125 C 89.015625 -25.960938 85.957031 -22.128906 82.875 -18.328125 C 78.3125 -12.804688 73.546875 -7.484375 68.578125 -2.359375 C 63.617188 2.765625 58.351562 7.566406 52.78125 12.046875 C 45.78125 17.816406 38.351562 22.894531 30.5 27.28125 C 18.46875 33.738281 5.863281 36.796875 -7.3125 36.453125 C -19.738281 36.179688 -30.941406 32.828125 -40.921875 26.390625 C -43.734375 24.585938 -46.222656 22.421875 -48.390625 19.890625 C -49.835938 18.085938 -50.988281 16.144531 -51.84375 14.0625 C -52.695312 11.976562 -53.125 9.71875 -53.125 7.28125 C -53 4.351562 -52.328125 1.640625 -51.109375 -0.859375 C -49.890625 -3.367188 -48.191406 -5.644531 -46.015625 -7.6875 C -43.035156 -10.570312 -39.757812 -13.007812 -36.1875 -15 C -32.707031 -17.019531 -29.125 -18.785156 -25.4375 -20.296875 C -21.757812 -21.816406 -18.050781 -23.171875 -14.3125 -24.359375 C -8.25 -26.304688 -2.125 -27.941406 4.0625 -29.265625 C 10.25 -30.597656 16.460938 -31.734375 22.703125 -32.671875 C 37.484375 -34.722656 52.304688 -36.082031 67.171875 -36.75 C 74.753906 -37.207031 82.316406 -37.4375 89.859375 -37.4375 C 91.929688 -37.394531 93.535156 -38.269531 94.671875 -40.0625 C 96.660156 -42.875 98.664062 -45.695312 100.6875 -48.53125 C 103.820312 -52.875 106.90625 -57.285156 109.9375 -61.765625 C 124.03125 -82.804688 137.53125 -104.195312 150.4375 -125.9375 C 151.53125 -127.78125 152.59375 -129.65625 153.625 -131.5625 C 154.113281 -132.519531 154.628906 -133.488281 155.171875 -134.46875 C 155.816406 -135.726562 156.84375 -136.429688 158.25 -136.578125 C 159.007812 -136.578125 159.566406 -136.363281 159.921875 -135.9375 C 160.285156 -135.507812 160.332031 -134.9375 160.0625 -134.21875 C 159.789062 -133.625 159.476562 -133.054688 159.125 -132.515625 C 157.03125 -128.773438 155.171875 -124.976562 153.546875 -121.125 C 152.929688 -119.769531 152.328125 -118.441406 151.734375 -117.140625 C 146.046875 -104.796875 140.332031 -92.4375 134.59375 -80.0625 C 130.195312 -70.53125 125.769531 -60.96875 121.3125 -51.375 C 120.03125 -48.539062 118.765625 -45.722656 117.515625 -42.921875 C 117.242188 -42.328125 116.972656 -41.757812 116.703125 -41.21875 C 116.648438 -41.09375 116.597656 -40.957031 116.546875 -40.8125 C 116.378906 -40.414062 116.238281 -40.023438 116.125 -39.640625 C 116.007812 -39.265625 116.039062 -38.890625 116.21875 -38.515625 C 116.582031 -38.242188 117.007812 -38.09375 117.5 -38.0625 C 118 -38.039062 118.457031 -38.03125 118.875 -38.03125 C 119.21875 -38.082031 119.523438 -38.109375 119.796875 -38.109375 C 121.847656 -38.054688 123.90625 -38.054688 125.96875 -38.109375 C 128.78125 -38.109375 131.601562 -38.082031 134.4375 -38.03125 C 149.8125 -37.757812 165.203125 -37.425781 180.609375 -37.03125 C 185.660156 -36.9375 190.675781 -36.726562 195.65625 -36.40625 C 196.09375 -36.363281 196.5625 -36.34375 197.0625 -36.34375 C 197.332031 -36.34375 197.625 -36.34375 197.9375 -36.34375 C 198.582031 -36.34375 199.207031 -36.285156 199.8125 -36.171875 C 200.414062 -36.054688 200.988281 -35.835938 201.53125 -35.515625 C 201.625 -35.441406 201.695312 -35.328125 201.75 -35.171875 C 201.800781 -35.015625 201.800781 -34.882812 201.75 -34.78125 C 201.75 -34.613281 201.679688 -34.460938 201.546875 -34.328125 C 201.410156 -34.191406 201.296875 -34.097656 201.203125 -34.046875 C 200.753906 -33.867188 200.285156 -33.78125 199.796875 -33.78125 Z M 89.609375 -33.375 C 89.773438 -33.71875 89.789062 -34.023438 89.65625 -34.296875 C 89.519531 -34.566406 89.289062 -34.703125 88.96875 -34.703125 C 88.476562 -34.753906 87.960938 -34.753906 87.421875 -34.703125 C 87.148438 -34.703125 86.878906 -34.703125 86.609375 -34.703125 C 68.003906 -34.484375 49.382812 -33.203125 30.75 -30.859375 C 23.632812 -30.003906 16.550781 -28.875 9.5 -27.46875 C 2.445312 -26.0625 -4.535156 -24.296875 -11.453125 -22.171875 C -15.148438 -21.046875 -18.796875 -19.75 -22.390625 -18.28125 C -25.992188 -16.8125 -29.507812 -15.066406 -32.9375 -13.046875 C -36.507812 -11.046875 -39.757812 -8.609375 -42.6875 -5.734375 C -46.113281 -2.203125 -48.039062 1.550781 -48.46875 5.53125 C -48.90625 9.507812 -47.84375 13.347656 -45.28125 17.046875 C -43.382812 19.628906 -41.117188 21.84375 -38.484375 23.6875 C -28.867188 30.519531 -17.421875 34 -4.140625 34.125 C -0.734375 34.125 3.171875 33.675781 7.578125 32.78125 C 11.960938 31.875 16.195312 30.539062 20.28125 28.78125 C 24.375 27.019531 28.347656 24.941406 32.203125 22.546875 C 41.679688 16.703125 50.460938 9.898438 58.546875 2.140625 C 64.140625 -3.109375 69.410156 -8.632812 74.359375 -14.4375 C 79.316406 -20.238281 84.125 -26.144531 88.78125 -32.15625 C 89.050781 -32.601562 89.328125 -33.007812 89.609375 -33.375 Z M 112.21875 -41.03125 C 115.789062 -49.164062 119.476562 -57.273438 123.28125 -65.359375 C 123.445312 -65.796875 124.015625 -67.066406 124.984375 -69.171875 C 125.960938 -71.285156 127.085938 -73.738281 128.359375 -76.53125 C 129.628906 -79.332031 130.789062 -81.976562 131.84375 -84.46875 C 132.90625 -86.957031 133.648438 -88.820312 134.078125 -90.0625 C 134.515625 -91.3125 134.390625 -91.429688 133.703125 -90.421875 C 133.523438 -90.191406 133.390625 -89.96875 133.296875 -89.75 C 132.703125 -88.882812 132.132812 -88.019531 131.59375 -87.15625 C 127.082031 -80.164062 122.546875 -73.179688 117.984375 -66.203125 C 113.429688 -59.234375 108.710938 -52.359375 103.828125 -45.578125 C 103.359375 -44.929688 102.878906 -44.253906 102.390625 -43.546875 C 101.453125 -42.265625 100.53125 -40.96875 99.625 -39.65625 C 99.25 -39.113281 99.140625 -38.664062 99.296875 -38.3125 C 99.460938 -37.957031 99.84375 -37.78125 100.4375 -37.78125 C 101.414062 -37.78125 102.390625 -37.804688 103.359375 -37.859375 C 104.878906 -37.972656 106.394531 -38.03125 107.90625 -38.03125 C 109.0625 -37.988281 109.957031 -38.238281 110.59375 -38.78125 C 111.238281 -39.320312 111.78125 -40.070312 112.21875 -41.03125 Z M 112.21875 -41.03125 "/></g></g></g><g fill="#141414" fill-opacity="1"><g transform="translate(701.685562, 139.633156)"><g><path d="M 38.625 -18.515625 C 39.488281 -19.054688 40.164062 -19.191406 40.65625 -18.921875 C 41.15625 -18.648438 40.972656 -17.890625 40.109375 -16.640625 C 39.023438 -15.179688 37.082031 -13.625 34.28125 -11.96875 C 31.488281 -10.320312 29.019531 -9.601562 26.875 -9.8125 C 24.726562 -10.019531 24.101562 -11.601562 25 -14.5625 C 25.90625 -17.519531 26.394531 -19.175781 26.46875 -19.53125 C 26.539062 -19.894531 26.472656 -20.097656 26.265625 -20.140625 C 26.054688 -20.191406 25.566406 -19.945312 24.796875 -19.40625 C 22.578125 -17.875 20.410156 -16.269531 18.296875 -14.59375 C 17.390625 -13.90625 16.488281 -13.179688 15.59375 -12.421875 C 15.050781 -11.929688 14.488281 -11.4375 13.90625 -10.9375 C 13.90625 -10.9375 13.878906 -10.914062 13.828125 -10.875 C 13.179688 -10.226562 12.390625 -9.796875 11.453125 -9.578125 C 11.035156 -9.453125 10.59375 -9.40625 10.125 -9.4375 C 9.65625 -9.476562 9.265625 -9.660156 8.953125 -9.984375 C 8.578125 -10.347656 8.4375 -10.734375 8.53125 -11.140625 C 8.632812 -11.546875 8.941406 -12.15625 9.453125 -12.96875 C 9.972656 -13.78125 10.546875 -14.671875 11.171875 -15.640625 C 11.804688 -16.617188 12.160156 -17.21875 12.234375 -17.4375 C 12.304688 -17.664062 12.269531 -17.890625 12.125 -18.109375 C 11.945312 -18.328125 11.753906 -18.394531 11.546875 -18.3125 C 11.335938 -18.226562 10.554688 -17.695312 9.203125 -16.71875 C 7.847656 -15.75 6 -14.390625 3.65625 -12.640625 C 2.570312 -11.828125 1.515625 -10.988281 0.484375 -10.125 C 0.210938 -9.851562 -0.0820312 -9.609375 -0.40625 -9.390625 C -1.164062 -8.742188 -2.003906 -8.398438 -2.921875 -8.359375 C -3.585938 -8.304688 -4.078125 -8.453125 -4.390625 -8.796875 C -4.710938 -9.140625 -4.765625 -9.609375 -4.546875 -10.203125 C -4.398438 -10.648438 -4.210938 -11.054688 -3.984375 -11.421875 C -3.867188 -11.597656 -3.785156 -11.769531 -3.734375 -11.9375 C -1.785156 -15.882812 0.132812 -19.84375 2.03125 -23.8125 C 2.082031 -23.90625 2.132812 -24.039062 2.1875 -24.21875 C 2.40625 -24.632812 2.625 -25.039062 2.84375 -25.4375 C 3.4375 -26.070312 4.140625 -26.28125 4.953125 -26.0625 C 5.890625 -25.789062 6.25 -25.25 6.03125 -24.4375 C 5.582031 -23.195312 5.148438 -21.976562 4.734375 -20.78125 C 4.515625 -20.226562 4.289062 -19.679688 4.0625 -19.140625 C 3.695312 -18.179688 3.582031 -17.566406 3.71875 -17.296875 C 3.851562 -17.023438 4.460938 -17.210938 5.546875 -17.859375 C 6.285156 -18.347656 7.007812 -18.835938 7.71875 -19.328125 C 8.582031 -19.921875 9.421875 -20.460938 10.234375 -20.953125 C 11.492188 -21.722656 12.773438 -22.378906 14.078125 -22.921875 C 14.722656 -23.191406 15.382812 -23.394531 16.0625 -23.53125 C 16.738281 -23.664062 17.375 -23.507812 17.96875 -23.0625 C 18.40625 -22.695312 18.59375 -22.28125 18.53125 -21.8125 C 18.46875 -21.34375 18.34375 -20.898438 18.15625 -20.484375 C 17.800781 -19.671875 17.65625 -19.148438 17.71875 -18.921875 C 17.78125 -18.703125 17.972656 -18.660156 18.296875 -18.796875 C 18.617188 -18.929688 19.1875 -19.242188 20 -19.734375 C 20.8125 -20.234375 21.6875 -20.773438 22.625 -21.359375 C 23.800781 -22.128906 25.046875 -22.859375 26.359375 -23.546875 C 27.441406 -24.265625 28.597656 -24.695312 29.828125 -24.84375 C 31.523438 -24.96875 32.21875 -24.28125 31.90625 -22.78125 C 31.601562 -21.289062 31.007812 -19.515625 30.125 -17.453125 C 29.238281 -15.398438 29.144531 -14.140625 29.84375 -13.671875 C 30.550781 -13.203125 32.109375 -13.835938 34.515625 -15.578125 C 36.929688 -17.316406 38.300781 -18.296875 38.625 -18.515625 Z M 38.625 -18.515625 "/></g></g></g><g fill="#141414" fill-opacity="1"><g transform="translate(750.709651, 139.633156)"><g><path d="M 26.8125 -18.828125 C 27.394531 -18.492188 27.441406 -17.6875 26.953125 -16.40625 C 26.234375 -15.46875 25.46875 -14.59375 24.65625 -13.78125 C 23.84375 -12.96875 22.957031 -12.242188 22 -11.609375 C 21.925781 -11.609375 21.890625 -11.582031 21.890625 -11.53125 C 21.242188 -11.09375 20.5625 -10.710938 19.84375 -10.390625 C 13.957031 -8.265625 10.953125 -9.507812 10.828125 -14.125 C 8.441406 -12.050781 6.84375 -10.78125 6.03125 -10.3125 C 4.082031 -9.15625 1.972656 -8.640625 -0.296875 -8.765625 C -1.972656 -8.859375 -3.113281 -9.367188 -3.71875 -10.296875 C -4.320312 -11.222656 -4.265625 -12.472656 -3.546875 -14.046875 C -2.460938 -16.535156 -0.921875 -18.753906 1.078125 -20.703125 C 3.410156 -22.867188 6.007812 -24.601562 8.875 -25.90625 C 10.394531 -26.675781 11.992188 -26.972656 13.671875 -26.796875 C 15.347656 -26.703125 16.359375 -25.753906 16.703125 -23.953125 C 16.859375 -23.410156 16.722656 -22.929688 16.296875 -22.515625 C 15.753906 -22.015625 15.128906 -21.898438 14.421875 -22.171875 C 14.367188 -22.171875 14.296875 -22.179688 14.203125 -22.203125 C 14.117188 -22.234375 14.054688 -22.273438 14.015625 -22.328125 C 13.296875 -23.316406 12.570312 -23.726562 11.84375 -23.5625 C 11.113281 -23.40625 10.34375 -23.078125 9.53125 -22.578125 C 5.738281 -20.367188 2.921875 -17.28125 1.078125 -13.3125 C 0.972656 -13.132812 0.90625 -12.941406 0.875 -12.734375 C 0.851562 -12.523438 0.921875 -12.359375 1.078125 -12.234375 C 1.515625 -12.085938 2.003906 -12.117188 2.546875 -12.328125 C 3.085938 -12.535156 3.628906 -12.84375 4.171875 -13.25 C 4.710938 -13.65625 5.171875 -13.992188 5.546875 -14.265625 C 5.597656 -14.335938 5.625 -14.375 5.625 -14.375 C 7.414062 -15.882812 9.175781 -17.425781 10.90625 -19 C 11.664062 -19.8125 12.613281 -20.269531 13.75 -20.375 C 15.375 -20.375 16.050781 -19.644531 15.78125 -18.1875 C 15.632812 -17.644531 15.472656 -17.101562 15.296875 -16.5625 C 14.660156 -14.21875 14.632812 -12.84375 15.21875 -12.4375 C 15.8125 -12.03125 16.71875 -12.03125 17.9375 -12.4375 C 19.164062 -12.84375 20.390625 -13.617188 21.609375 -14.765625 C 22.828125 -15.910156 23.851562 -16.957031 24.6875 -17.90625 C 25.53125 -18.851562 26.238281 -19.160156 26.8125 -18.828125 Z M 26.8125 -18.828125 "/></g></g></g><g fill="#141414" fill-opacity="1"><g transform="translate(785.133516, 139.633156)"><g><path d="M 29.28125 -18.4375 C 29.675781 -17.945312 29.179688 -17.046875 27.796875 -15.734375 C 26.421875 -14.429688 24.953125 -13.335938 23.390625 -12.453125 C 21.835938 -11.566406 20.039062 -10.679688 18 -9.796875 C 16.644531 -9.203125 15.203125 -9.003906 13.671875 -9.203125 C 12.148438 -9.398438 11.390625 -10.320312 11.390625 -11.96875 C 11.390625 -13.625 11.769531 -15.265625 12.53125 -16.890625 C 13.289062 -18.566406 13.457031 -19.425781 13.03125 -19.46875 C 12.601562 -19.519531 11.707031 -19.117188 10.34375 -18.265625 C 6.820312 -15.941406 3.546875 -13.289062 0.515625 -10.3125 C -0.296875 -9.320312 -1.332031 -8.78125 -2.59375 -8.6875 C -3.226562 -8.6875 -3.722656 -8.890625 -4.078125 -9.296875 C -4.441406 -9.703125 -4.488281 -10.140625 -4.21875 -10.609375 C -2.050781 -14.628906 0.140625 -18.597656 2.359375 -22.515625 C 2.859375 -23.328125 3.597656 -23.832031 4.578125 -24.03125 C 5.003906 -24.101562 5.394531 -23.972656 5.75 -23.640625 C 6.101562 -23.304688 6.28125 -22.929688 6.28125 -22.515625 C 6.226562 -22.117188 6.066406 -21.648438 5.796875 -21.109375 C 5.679688 -20.785156 5.566406 -20.472656 5.453125 -20.171875 C 5.335938 -19.878906 5.296875 -19.632812 5.328125 -19.4375 C 5.367188 -19.238281 5.523438 -19.179688 5.796875 -19.265625 C 6.171875 -19.453125 6.539062 -19.660156 6.90625 -19.890625 C 7.84375 -20.429688 8.742188 -20.945312 9.609375 -21.4375 C 10.367188 -21.882812 11.164062 -22.28125 12 -22.625 C 12.84375 -22.96875 13.722656 -23.203125 14.640625 -23.328125 C 16.117188 -23.421875 17.164062 -23.085938 17.78125 -22.328125 C 18.394531 -21.566406 18.46875 -20.503906 18 -19.140625 C 17.507812 -17.910156 16.992188 -16.691406 16.453125 -15.484375 C 15.785156 -14.347656 15.671875 -13.484375 16.109375 -12.890625 C 16.554688 -12.304688 18.617188 -12.988281 22.296875 -14.9375 L 25.0625 -16.5625 C 27.675781 -18.238281 29.082031 -18.863281 29.28125 -18.4375 Z M 29.28125 -18.4375 "/></g></g></g><g fill="#141414" fill-opacity="1"><g transform="translate(822.144733, 139.633156)"><g><path d="M 5.875 -8.765625 L 5.765625 -8.765625 C 2.191406 -8.804688 -0.160156 -9.597656 -1.296875 -11.140625 C -2.429688 -12.679688 -2.378906 -14.734375 -1.140625 -17.296875 C -0.109375 -19.242188 1.191406 -20.945312 2.765625 -22.40625 C 3.304688 -22.894531 3.859375 -23.285156 4.421875 -23.578125 C 4.992188 -23.878906 5.640625 -24.03125 6.359375 -24.03125 C 6.773438 -24.101562 7.253906 -24.03125 7.796875 -23.8125 C 7.972656 -23.757812 8.144531 -23.695312 8.3125 -23.625 C 8.738281 -23.695312 9.144531 -23.832031 9.53125 -24.03125 C 9.632812 -24.101562 9.769531 -24.164062 9.9375 -24.21875 C 10.75 -24.53125 11.613281 -24.664062 12.53125 -24.625 C 12.894531 -24.625 13.273438 -24.625 13.671875 -24.625 C 15.128906 -24.394531 16.226562 -23.78125 16.96875 -22.78125 C 17.707031 -21.789062 17.96875 -20.578125 17.75 -19.140625 C 17.625 -18.285156 17.351562 -17.472656 16.9375 -16.703125 C 14.09375 -11.628906 10.476562 -8.984375 6.09375 -8.765625 Z M 11.71875 -22 C 9.769531 -22.070312 8.035156 -21.507812 6.515625 -20.3125 C 5.003906 -19.113281 3.878906 -17.738281 3.140625 -16.1875 C 2.398438 -14.632812 2.195312 -13.359375 2.53125 -12.359375 C 2.863281 -11.367188 3.894531 -11.09375 5.625 -11.53125 C 7.5625 -12.125 9.273438 -13.234375 10.765625 -14.859375 C 12.265625 -16.484375 13.179688 -18.03125 13.515625 -19.5 C 13.847656 -20.96875 13.25 -21.800781 11.71875 -22 Z M 11.71875 -22 "/></g></g></g><g fill="#141414" fill-opacity="1"><g transform="translate(851.689512, 139.633156)"><g><path d="M 23.578125 -31.125 C 23.359375 -30.582031 23.085938 -30.066406 22.765625 -29.578125 C 18.753906 -23.066406 14.195312 -17.015625 9.09375 -11.421875 C 8.40625 -10.609375 7.65625 -9.878906 6.84375 -9.234375 C 6.070312 -8.691406 5.257812 -8.3125 4.40625 -8.09375 C 1.957031 -7.675781 0.535156 -8.648438 0.140625 -11.015625 C 0.046875 -12.492188 0.046875 -13.960938 0.140625 -15.421875 C 0.140625 -16.078125 0.140625 -16.726562 0.140625 -17.375 C 0.140625 -17.375 0.179688 -17.375 0.265625 -17.375 C 0.265625 -17.8125 0.265625 -18.242188 0.265625 -18.671875 C 0.265625 -19.753906 0.265625 -20.835938 0.265625 -21.921875 C 0.265625 -22.515625 0.285156 -23.117188 0.328125 -23.734375 C 0.597656 -25.085938 1.273438 -25.789062 2.359375 -25.84375 C 3.546875 -25.789062 4.203125 -24.953125 4.328125 -23.328125 C 4.328125 -22.878906 4.289062 -22.472656 4.21875 -22.109375 C 4.164062 -21.710938 4.140625 -21.351562 4.140625 -21.03125 C 4.035156 -18.644531 3.960938 -16.226562 3.921875 -13.78125 C 3.921875 -13.238281 4.15625 -12.921875 4.625 -12.828125 C 4.789062 -12.828125 4.941406 -12.863281 5.078125 -12.9375 C 5.210938 -13.007812 5.332031 -13.109375 5.4375 -13.234375 C 6.863281 -14.910156 8.253906 -16.585938 9.609375 -18.265625 C 10.148438 -18.929688 10.691406 -19.582031 11.234375 -20.21875 C 11.828125 -20.976562 12.421875 -21.707031 13.015625 -22.40625 C 15.347656 -25.332031 17.703125 -28.238281 20.078125 -31.125 C 20.347656 -31.488281 20.660156 -31.804688 21.015625 -32.078125 C 21.367188 -32.347656 21.816406 -32.484375 22.359375 -32.484375 C 22.804688 -32.441406 23.191406 -32.285156 23.515625 -32.015625 C 23.609375 -31.910156 23.65625 -31.769531 23.65625 -31.59375 C 23.65625 -31.425781 23.628906 -31.269531 23.578125 -31.125 Z M 23.578125 -31.125 "/></g></g></g></g></g></svg>